<svg id="svg" version="1.1" xmlns="http://www.w3.org/2000/svg" xmlns:xlink="http://www.w3.org/1999/xlink" width="400" height="400" viewBox="0, 0, 400,400"><g id="svgg"><path id="path0" d="M156.800 68.610 C 133.150 82.117,102.100 99.843,87.800 108.001 L 61.800 122.835 61.881 201.717 L 61.962 280.600 80.281 291.095 L 98.600 301.590 98.800 222.703 L 99.000 143.817 108.000 138.698 C 112.950 135.883,127.440 127.622,140.200 120.341 L 163.400 107.101 163.447 104.384 C 163.705 89.332,184.839 85.358,191.333 99.139 C 196.909 110.976,183.651 123.857,171.884 118.035 L 170.351 117.276 140.775 134.138 L 111.200 151.000 111.200 229.880 L 111.200 308.761 152.252 332.180 C 174.831 345.061,193.416 355.600,193.552 355.600 C 193.689 355.600,193.800 320.185,193.800 276.900 L 193.800 198.200 201.200 193.975 C 205.270 191.651,236.320 173.945,270.200 154.627 C 304.080 135.310,331.848 119.462,331.908 119.411 C 332.088 119.255,296.629 99.074,296.200 99.088 C 295.980 99.096,278.340 109.044,257.000 121.196 C 235.660 133.347,204.610 151.020,188.000 160.468 L 157.800 177.647 157.879 229.923 L 157.958 282.200 161.079 284.028 L 164.200 285.855 164.305 299.128 C 164.363 306.427,164.262 312.400,164.080 312.400 C 163.899 312.400,158.181 309.286,151.375 305.479 L 139.000 298.559 138.895 285.279 C 138.832 277.328,138.938 272.000,139.159 272.000 C 139.363 272.000,140.779 272.720,142.305 273.600 C 143.831 274.480,145.152 275.200,145.240 275.200 C 145.328 275.200,145.400 251.666,145.400 222.901 L 145.400 170.602 214.275 131.401 C 252.156 109.841,283.256 92.090,283.386 91.956 C 283.570 91.765,200.224 43.923,199.886 44.026 C 199.839 44.041,180.450 55.103,156.800 68.610 M272.000 167.660 L 206.200 205.240 206.200 280.420 C 206.200 321.769,206.314 355.600,206.453 355.600 C 206.591 355.600,215.141 350.778,225.453 344.885 L 244.200 334.169 244.400 280.585 L 244.600 227.000 265.000 215.360 C 284.340 204.325,285.393 203.666,285.273 202.674 C 284.888 199.498,287.523 193.900,290.584 191.392 C 302.579 181.562,319.820 194.872,313.114 208.786 C 309.830 215.600,300.250 218.894,293.635 215.484 L 291.471 214.368 274.135 224.267 L 256.800 234.165 256.800 253.083 C 256.800 263.487,256.913 272.000,257.051 272.000 C 257.190 272.000,275.547 261.605,297.845 248.900 L 338.387 225.800 338.393 177.900 C 338.397 151.555,338.265 130.018,338.100 130.040 C 337.935 130.062,308.190 146.991,272.000 167.660 M299.800 261.828 C 278.900 273.783,260.675 284.206,259.300 284.992 L 256.800 286.420 256.800 306.653 C 256.800 322.682,256.904 326.843,257.300 326.681 C 257.575 326.568,275.890 316.150,298.000 303.530 L 338.200 280.585 338.304 260.292 C 338.361 249.132,338.271 240.021,338.104 240.047 C 337.937 240.073,320.700 249.874,299.800 261.828 " stroke="none" fill="#ebbb33" fill-rule="evenodd"></path><path id="path1" d="M0.000 200.000 L 0.000 400.000 200.000 400.000 L 400.000 400.000 400.000 200.000 L 400.000 0.000 200.000 0.000 L 0.000 0.000 0.000 200.000 M239.407 66.159 C 283.905 91.545,284.000 91.600,283.999 91.946 C 283.999 92.086,283.054 92.697,281.899 93.305 C 280.745 93.913,249.650 111.569,212.800 132.541 L 145.800 170.671 145.699 223.135 C 145.643 251.991,145.524 275.600,145.434 275.600 C 145.344 275.600,144.021 274.880,142.495 274.000 C 140.969 273.120,139.601 272.400,139.455 272.400 C 139.309 272.400,139.237 278.266,139.295 285.436 L 139.400 298.473 151.200 305.085 C 157.690 308.721,163.225 311.784,163.500 311.891 C 163.894 312.044,164.000 309.321,164.000 299.078 L 164.000 286.070 160.800 284.224 L 157.600 282.379 157.612 229.889 L 157.624 177.400 225.847 138.600 C 263.369 117.260,294.583 99.547,295.211 99.239 C 296.330 98.689,296.697 98.874,314.076 108.772 C 323.824 114.323,331.935 118.995,332.101 119.154 C 332.267 119.312,301.307 137.175,263.301 158.849 L 194.200 198.256 194.099 277.328 C 194.043 320.818,193.901 356.400,193.782 356.400 C 193.663 356.400,193.343 356.191,193.069 355.936 C 192.796 355.681,174.219 345.006,151.786 332.215 L 111.000 308.958 110.899 229.950 L 110.798 150.942 140.468 134.009 C 169.589 117.391,170.162 117.086,171.369 117.584 C 181.951 121.940,192.200 115.745,192.200 104.993 C 192.200 86.702,164.471 86.043,163.751 104.317 L 163.635 107.274 131.718 125.468 C 114.163 135.475,99.663 143.794,99.496 143.955 C 99.329 144.116,99.195 179.762,99.198 223.168 C 99.203 286.313,99.104 302.046,98.702 301.881 C 98.426 301.768,90.010 297.000,80.000 291.286 L 61.800 280.896 61.705 201.748 L 61.610 122.600 129.505 83.899 C 166.847 62.613,197.940 44.852,198.600 44.430 C 199.260 44.008,199.893 43.693,200.007 43.731 C 200.120 43.769,217.850 53.862,239.407 66.159 M338.800 177.717 L 338.800 225.835 298.160 249.017 C 275.808 261.768,257.268 272.258,256.960 272.329 C 256.486 272.439,256.400 269.513,256.400 253.284 L 256.400 234.109 273.975 224.069 L 291.550 214.028 293.275 214.982 C 302.652 220.168,314.168 213.237,314.179 202.400 C 314.198 184.518,287.494 183.593,285.666 201.413 L 285.400 204.006 265.200 215.547 L 245.000 227.088 244.893 280.644 L 244.785 334.200 226.130 344.800 C 215.870 350.630,207.246 355.625,206.966 355.900 C 206.686 356.175,206.354 356.400,206.229 356.400 C 206.103 356.400,206.002 322.335,206.005 280.700 L 206.009 205.000 208.305 203.728 C 209.567 203.028,239.310 186.069,274.400 166.040 C 309.490 146.012,338.335 129.620,338.500 129.613 C 338.665 129.606,338.800 151.253,338.800 177.717 M338.790 260.100 L 338.781 280.600 298.277 303.679 C 276.000 316.373,257.463 326.878,257.083 327.024 C 256.434 327.273,256.399 326.060,256.496 306.759 L 256.600 286.230 297.400 262.937 C 319.840 250.126,338.335 239.634,338.500 239.622 C 338.665 239.610,338.796 248.825,338.790 260.100 " stroke="none" fill="#040404" fill-rule="evenodd"></path><path id="path2" d="M110.996 230.200 C 110.996 273.540,111.043 291.329,111.100 269.732 C 111.157 248.134,111.157 212.674,111.100 190.932 C 111.043 169.189,110.996 186.860,110.996 230.200 M244.594 280.600 C 244.594 310.080,244.642 322.081,244.700 307.269 C 244.758 292.457,244.758 268.337,244.700 253.669 C 244.642 239.001,244.594 251.120,244.594 280.600 " stroke="none" fill="#584413" fill-rule="evenodd"></path><path id="path3" d="M192.514 105.000 C 192.517 106.100,192.595 106.503,192.687 105.895 C 192.779 105.286,192.777 104.386,192.682 103.895 C 192.587 103.403,192.511 103.900,192.514 105.000 M163.293 104.800 C 163.293 105.570,163.375 105.885,163.476 105.500 C 163.576 105.115,163.576 104.485,163.476 104.100 C 163.375 103.715,163.293 104.030,163.293 104.800 M177.300 119.476 C 177.685 119.576,178.315 119.576,178.700 119.476 C 179.085 119.375,178.770 119.293,178.000 119.293 C 177.230 119.293,176.915 119.375,177.300 119.476 M61.796 201.600 C 61.796 244.830,61.843 262.515,61.900 240.900 C 61.957 219.285,61.957 183.915,61.900 162.300 C 61.843 140.685,61.796 158.370,61.796 201.600 M338.594 177.800 C 338.594 204.200,338.641 215.059,338.700 201.931 C 338.758 188.803,338.758 167.203,338.700 153.931 C 338.641 140.659,338.594 151.400,338.594 177.800 M145.394 222.800 C 145.394 251.510,145.442 263.255,145.500 248.900 C 145.558 234.545,145.558 211.055,145.500 196.700 C 145.442 182.345,145.394 194.090,145.394 222.800 M157.794 229.800 C 157.794 258.400,157.842 270.041,157.900 255.669 C 157.958 241.297,157.958 217.897,157.900 203.669 C 157.842 189.441,157.794 201.200,157.794 229.800 M289.375 192.500 L 288.200 193.800 289.500 192.625 C 290.215 191.979,290.800 191.394,290.800 191.325 C 290.800 191.016,290.470 191.288,289.375 192.500 M193.796 276.800 C 193.796 320.030,193.843 337.715,193.900 316.100 C 193.957 294.485,193.957 259.115,193.900 237.500 C 193.843 215.885,193.796 233.570,193.796 276.800 M285.293 202.000 C 285.293 202.770,285.375 203.085,285.476 202.700 C 285.576 202.315,285.576 201.685,285.476 201.300 C 285.375 200.915,285.293 201.230,285.293 202.000 M206.196 280.400 C 206.196 321.650,206.243 338.525,206.300 317.900 C 206.357 297.275,206.357 263.525,206.300 242.900 C 206.243 222.275,206.196 239.150,206.196 280.400 M338.400 260.280 C 338.290 271.544,338.337 280.624,338.504 280.456 C 338.671 280.289,338.761 271.073,338.704 259.976 L 338.600 239.800 338.400 260.280 M138.979 285.200 C 138.979 292.570,139.033 295.585,139.099 291.900 C 139.165 288.215,139.165 282.185,139.099 278.500 C 139.033 274.815,138.979 277.830,138.979 285.200 M164.179 299.200 C 164.179 306.570,164.233 309.585,164.299 305.900 C 164.365 302.215,164.365 296.185,164.299 292.500 C 164.233 288.815,164.179 291.830,164.179 299.200 " stroke="none" fill="#745c1c" fill-rule="evenodd"></path><path id="path4" d="M98.996 223.400 C 98.996 266.740,99.043 284.529,99.100 262.932 C 99.157 241.334,99.157 205.874,99.100 184.132 C 99.043 162.389,98.996 180.060,98.996 223.400 M256.583 234.100 C 256.478 234.375,256.439 243.150,256.496 253.600 L 256.600 272.600 256.800 253.100 C 256.910 242.375,256.949 233.600,256.887 233.600 C 256.826 233.600,256.689 233.825,256.583 234.100 M256.586 306.800 C 256.586 318.130,256.637 322.765,256.700 317.100 C 256.762 311.435,256.762 302.165,256.700 296.500 C 256.637 290.835,256.586 295.470,256.586 306.800 " stroke="none" fill="#2f240b" fill-rule="evenodd"></path></g></svg>